<svg width="71" height="70" viewBox="0 0 71 70" fill="none" xmlns="http://www.w3.org/2000/svg">
<circle cx="35.5" cy="35" r="35" fill="#F1F1F1"/>
<g clip-path="url(#clip0_132_58)">
<path d="M31.1959 22.2975C30.7898 21.3166 29.7193 20.7945 28.6963 21.074L24.0557 22.3397C23.1381 22.5928 22.5 23.426 22.5 24.3752C22.5 37.4217 33.0785 48.0002 46.125 48.0002C47.0742 48.0002 47.9074 47.3621 48.1605 46.4445L49.4262 41.8039C49.7057 40.7809 49.1836 39.7104 48.2027 39.3043L43.1402 37.1949C42.2807 36.8363 41.284 37.0842 40.6986 37.8067L38.5682 40.4065C34.8557 38.6504 31.8498 35.6445 30.0938 31.932L32.6936 29.8069C33.416 29.2162 33.6639 28.2248 33.3053 27.3653L31.1959 22.3028V22.2975Z" fill="#106393"/>
</g>
<defs>
<clipPath id="clip0_132_58">
<rect width="27" height="27" fill="white" transform="translate(22.5 21)"/>
</clipPath>
</defs>
</svg>
