<svg width="71" height="70" viewBox="0 0 71 70" fill="none" xmlns="http://www.w3.org/2000/svg">
<circle cx="35.5" cy="35" r="35" fill="#F1F1F1"/>
<g clip-path="url(#clip0_132_52)">
<path d="M37.6664 52.1C41.2734 47.5859 49.5 36.6453 49.5 30.5C49.5 23.0469 43.4531 17 36 17C28.5469 17 22.5 23.0469 22.5 30.5C22.5 36.6453 30.7266 47.5859 34.3336 52.1C35.1984 53.1758 36.8016 53.1758 37.6664 52.1ZM36 26C37.1935 26 38.3381 26.4741 39.182 27.318C40.0259 28.1619 40.5 29.3065 40.5 30.5C40.5 31.6935 40.0259 32.8381 39.182 33.682C38.3381 34.5259 37.1935 35 36 35C34.8065 35 33.6619 34.5259 32.818 33.682C31.9741 32.8381 31.5 31.6935 31.5 30.5C31.5 29.3065 31.9741 28.1619 32.818 27.318C33.6619 26.4741 34.8065 26 36 26Z" fill="#106393"/>
</g>
<defs>
<clipPath id="clip0_132_52">
<rect width="27" height="36" fill="white" transform="translate(22.5 17)"/>
</clipPath>
</defs>
</svg>
