<svg width="71" height="70" viewBox="0 0 71 70" fill="none" xmlns="http://www.w3.org/2000/svg">
<circle cx="35.5" cy="35" r="35" fill="#F1F1F1"/>
<path d="M24.0312 25C22.6338 25 21.5 26.1338 21.5 27.5312C21.5 28.3275 21.8744 29.0764 22.5125 29.5562L33.9875 38.1625C34.5887 38.6107 35.4113 38.6107 36.0125 38.1625L47.4875 29.5562C48.1256 29.0764 48.5 28.3275 48.5 27.5312C48.5 26.1338 47.3662 25 45.9688 25H24.0312ZM21.5 30.9062V41.875C21.5 43.7365 23.0135 45.25 24.875 45.25H45.125C46.9865 45.25 48.5 43.7365 48.5 41.875V30.9062L37.025 39.5125C35.8227 40.4143 34.1773 40.4143 32.975 39.5125L21.5 30.9062Z" fill="#106393"/>
</svg>
