<svg width="21" height="27" viewBox="0 0 21 27" fill="none" xmlns="http://www.w3.org/2000/svg">
<path d="M11.3594 26C14.0312 22.6563 20.125 14.5521 20.125 10C20.125 4.47917 15.6458 0 10.125 0C4.60417 0 0.125 4.47917 0.125 10C0.125 14.5521 6.21875 22.6563 8.89062 26C9.53125 26.7969 10.7187 26.7969 11.3594 26ZM10.125 6.66667C11.0091 6.66667 11.8569 7.01786 12.482 7.64298C13.1071 8.2681 13.4583 9.11594 13.4583 10C13.4583 10.8841 13.1071 11.7319 12.482 12.357C11.8569 12.9821 11.0091 13.3333 10.125 13.3333C9.24094 13.3333 8.3931 12.9821 7.76798 12.357C7.14286 11.7319 6.79167 10.8841 6.79167 10C6.79167 9.11594 7.14286 8.2681 7.76798 7.64298C8.3931 7.01786 9.24094 6.66667 10.125 6.66667Z" fill="white"/>
</svg>
