<svg width="27" height="21" viewBox="0 0 27 21" fill="none" xmlns="http://www.w3.org/2000/svg">
<path d="M2.625 0.5C1.24479 0.5 0.125 1.61979 0.125 3C0.125 3.78646 0.494792 4.52604 1.125 5L12.4583 13.5C13.0521 13.9427 13.8646 13.9427 14.4583 13.5L25.7917 5C26.4219 4.52604 26.7917 3.78646 26.7917 3C26.7917 1.61979 25.6719 0.5 24.2917 0.5H2.625ZM0.125 6.33333V17.1667C0.125 19.0052 1.61979 20.5 3.45833 20.5H23.4583C25.2969 20.5 26.7917 19.0052 26.7917 17.1667V6.33333L15.4583 14.8333C14.2708 15.724 12.6458 15.724 11.4583 14.8333L0.125 6.33333Z" fill="white"/>
</svg>
