<svg width="22" height="22" viewBox="0 0 22 22" fill="none" xmlns="http://www.w3.org/2000/svg">
<path d="M6.88818 1.50986C6.57237 0.747008 5.73979 0.340971 4.94412 0.558344L1.33491 1.54268C0.621267 1.73954 0.125 2.38756 0.125 3.12581C0.125 13.2726 8.35237 21.5 18.4992 21.5C19.2374 21.5 19.8855 21.0037 20.0823 20.2901L21.0667 16.6809C21.284 15.8852 20.878 15.0526 20.1151 14.7368L16.1778 13.0963C15.5093 12.8174 14.7341 13.0101 14.2789 13.572L12.6219 15.594C9.73454 14.2282 7.39675 11.8905 6.03099 9.00309L8.05297 7.35023C8.61486 6.89088 8.80763 6.11982 8.52873 5.45129L6.88818 1.51397V1.50986Z" fill="white"/>
</svg>
