<svg width="32" height="32" viewBox="0 0 32 32" fill="none" xmlns="http://www.w3.org/2000/svg">
<circle cx="16.3041" cy="16.351" r="15.5971" fill="#FFD645"/>
<path d="M14.9117 7C11.0906 7 8 10.1405 8 14.0234C8 17.9063 11.0906 21.0468 14.9117 21.0468C16.2759 21.0468 17.5385 20.6401 18.609 19.9494L23.6022 25.0233L25.3301 23.2674L20.4004 18.271C21.2866 17.0897 21.8234 15.6259 21.8234 14.0234C21.8234 10.1405 18.7328 7 14.9117 7ZM14.9117 8.65257C17.8387 8.65257 20.1971 11.0491 20.1971 14.0234C20.1971 16.9977 17.8387 19.3942 14.9117 19.3942C11.9847 19.3942 9.62628 16.9977 9.62628 14.0234C9.62628 11.0491 11.9847 8.65257 14.9117 8.65257Z" fill="white"/>
</svg>
