<svg width="40" height="40" viewBox="0 0 40 40" fill="none" xmlns="http://www.w3.org/2000/svg">
<g clip-path="url(#clip0_542_453)">
<path d="M35.7998 14.1328H26.0367C25.8665 14.1328 25.7529 14.2688 25.7529 14.4047V20.7123C25.7529 20.8754 25.8948 20.9842 26.0367 20.9842H35.7998C35.9701 20.9842 36.0836 20.8482 36.0836 20.7123V14.4047C36.0836 14.2416 35.9417 14.1328 35.7998 14.1328ZM35.4876 20.4132H26.3206V14.6766H35.4876V20.4132Z" fill="#106393"/>
<path d="M40.0001 23.9478C40.0001 23.9206 40.0001 23.9206 40.0001 23.8934C40.0001 23.8934 40.0001 23.8934 40.0001 23.8662C40.0001 23.8662 40.0001 23.839 39.9718 23.839C39.9718 23.8118 39.9434 23.8118 39.9434 23.8118L39.915 23.7846C39.915 23.7846 39.915 23.7846 39.8866 23.7846C39.8866 23.7846 39.8866 23.7846 39.8582 23.7846L37.6445 22.7243V13.2357C37.6445 13.0726 37.5026 12.9639 37.3607 12.9639H24.4757C24.3054 12.9639 24.1919 13.0998 24.1919 13.2357V22.6971L22.0633 23.7303C22.0633 23.7303 22.0633 23.7303 22.0349 23.7303C22.0349 23.7303 22.0349 23.7303 22.0065 23.7303L21.9781 23.7575L21.9498 23.7846L21.9214 23.8118C21.9214 23.8118 21.9214 23.8118 21.9214 23.839V23.8662C21.9214 23.8662 21.9214 23.8662 21.9214 23.8934V23.9206V24.6818C21.9214 24.845 22.0633 24.9537 22.2052 24.9537H39.7163C39.8866 24.9537 40.0001 24.8178 40.0001 24.6818V23.9206C40.0001 23.975 40.0001 23.9478 40.0001 23.9478ZM24.7879 13.5348H37.0485V22.5884H24.7879V13.5348ZM24.5608 23.1593H37.2756L38.4676 23.7303H23.3972L24.5608 23.1593ZM39.4041 24.4643H22.489V24.274H39.4325V24.4643H39.4041Z" fill="#106393"/>
<path d="M31.0316 21.1475C30.691 21.1475 30.4072 21.4193 30.4072 21.7456C30.4072 22.0718 30.691 22.3437 31.0316 22.3437C31.3722 22.3437 31.656 22.0718 31.656 21.7456C31.656 21.4193 31.3722 21.1475 31.0316 21.1475ZM31.0316 22.0175C30.8897 22.0175 30.7478 21.9087 30.7478 21.7456C30.7478 21.6097 30.8613 21.4737 31.0316 21.4737C31.1735 21.4737 31.3154 21.5825 31.3154 21.7456C31.3154 21.8815 31.1735 22.0175 31.0316 22.0175Z" fill="#106393"/>
</g>
<g clip-path="url(#clip1_542_453)">
<path d="M16.8048 6H3.30228C2.0578 6 1 7.05115 1 8.2878V30.1765C1 31.4131 2.0578 32.4643 3.30228 32.4643H16.7426C17.9871 32.4643 19.0449 31.4131 19.0449 30.1765V8.2878C19.1071 7.05115 18.0493 6 16.8048 6ZM17.9871 30.1765C17.9871 30.8566 17.4271 31.4131 16.7426 31.4131H3.30228C2.61782 31.4131 2.0578 30.8566 2.0578 30.1765V8.2878C2.0578 7.60764 2.61782 7.05115 3.30228 7.05115H16.7426C17.4271 7.05115 17.9871 7.60764 17.9871 8.2878V30.1765Z" fill="#106393"/>
<path d="M10.0223 7.60745C10.1468 7.60745 10.2712 7.48379 10.2712 7.36012C10.2712 7.23646 10.1468 7.11279 10.0223 7.11279C9.89788 7.11279 9.77344 7.23646 9.77344 7.36012C9.77344 7.48379 9.89788 7.60745 10.0223 7.60745Z" fill="#106393"/>
<path d="M9.08923 8.5972H10.9559C11.0804 8.5972 11.2048 8.47353 11.2048 8.34987C11.2048 8.2262 11.0804 8.10254 10.9559 8.10254H9.08923C8.96478 8.10254 8.84033 8.2262 8.84033 8.34987C8.84033 8.47353 8.96478 8.5972 9.08923 8.5972Z" fill="#106393"/>
<path d="M8.28042 8.53506C8.40487 8.53506 8.46709 8.47322 8.46709 8.34956C8.46709 8.22589 8.40487 8.16406 8.28042 8.16406C8.15597 8.16406 8.09375 8.22589 8.09375 8.34956C8.09375 8.47322 8.15597 8.53506 8.28042 8.53506Z" fill="#106393"/>
<path d="M10.0227 28.3213C9.21376 28.3213 8.5293 29.0014 8.5293 29.8053C8.5293 30.6091 9.21376 31.2892 10.0227 31.2892C10.8316 31.2892 11.516 30.6091 11.516 29.8053C11.5783 29.0014 10.8938 28.3213 10.0227 28.3213ZM10.0227 30.7946C9.46265 30.7946 9.02709 30.3618 9.02709 29.8053C9.02709 29.2488 9.46265 28.816 10.0227 28.816C10.5827 28.816 11.0182 29.2488 11.0182 29.8053C11.0182 30.3618 10.5827 30.7946 10.0227 30.7946Z" fill="#106393"/>
<path d="M16.3691 9.15332H3.73766C3.61322 9.15332 3.48877 9.27699 3.48877 9.40065V28.0122C3.48877 28.1359 3.61322 28.2595 3.73766 28.2595H16.3691C16.4935 28.2595 16.618 28.1359 16.618 28.0122V9.40065C16.618 9.27699 16.4935 9.15332 16.3691 9.15332ZM16.1202 27.7649H3.98656V9.64798H16.058V27.7649H16.1202Z" fill="#106393"/>
</g>
<defs>
<clipPath id="clip0_542_453">
<rect width="18.1071" height="12.0714" fill="white" transform="translate(21.8931 12.9639)"/>
</clipPath>
<clipPath id="clip1_542_453">
<rect width="18.1071" height="26.4643" fill="white" transform="translate(1 6)"/>
</clipPath>
</defs>
</svg>
