<svg width="40" height="40" viewBox="0 0 40 40" fill="none" xmlns="http://www.w3.org/2000/svg">
<path d="M23.4012 20.0704L17.4512 23.4704V16.6704L23.4012 20.0704Z" fill="#106393" stroke="#106393" stroke-width="2" stroke-linecap="round" stroke-linejoin="round"/>
<path d="M3 21.2729V18.8673C3 13.9452 3 11.4841 4.53933 9.90063C6.07868 8.31714 8.50215 8.24859 13.3491 8.1115C15.6458 8.04655 17.992 8 20 8C22.008 8 24.3542 8.04655 26.6509 8.1115C31.4978 8.24859 33.9213 8.31714 35.4607 9.90063C37 11.4841 37 13.9452 37 18.8673V21.2729C37 26.1949 37 28.656 35.4607 30.2394C33.9213 31.8229 31.498 31.8915 26.6511 32.0286C24.3542 32.0936 22.008 32.1402 20 32.1402C17.992 32.1402 15.6457 32.0936 13.3489 32.0286C8.50207 31.8915 6.07865 31.8229 4.53932 30.2394C3 28.656 3 26.1949 3 21.2729Z" stroke="#106393" stroke-width="1.5"/>
</svg>
