<svg width="40" height="41" viewBox="0 0 40 41" fill="none" xmlns="http://www.w3.org/2000/svg">
<path d="M24.7125 3H15.6541C14.2116 3 13 4.16667 13 5.55556V22.6111C13 24.0556 14.2116 25.1667 15.6541 25.1667H24.7125C26.2126 25.1667 27.3665 24 27.3665 22.6111V5.55556C27.3665 4.16667 26.2126 3 24.7125 3ZM24.8279 22.8333H15.5964C15.3079 22.8333 15.0771 22.6111 15.0771 22.3333C15.0771 22.0556 15.3079 21.8333 15.5964 21.8333H24.8279C25.1164 21.8333 25.3472 22.0556 25.3472 22.3333C25.3472 22.6111 25.1164 22.8333 24.8279 22.8333ZM23.9047 16.3333C22.9816 17.1111 21.943 17.5556 20.7314 17.6667C18.4812 17.8889 16.1733 16.7222 15.1348 14.7778C14.7886 14.1111 14.5578 13.4444 14.5001 12.6667C14.5001 12.6111 14.5001 12.6111 14.5001 12.5556C14.5001 12.3333 14.5001 12.1111 14.5001 11.9444C14.5001 11.8889 14.5001 11.8889 14.5001 11.8333C14.5578 11.0556 14.7886 10.3333 15.1348 9.66667C16.0002 8.11111 17.3273 7.22222 19.1159 6.88889C19.4044 6.88889 19.6352 6.88889 19.8659 6.88889C20.0967 6.88889 20.3275 6.88889 20.5006 6.88889C20.7314 6.88889 20.9622 6.88889 21.193 6.94445C23.097 7.27778 24.4817 8.33333 25.3472 10C25.751 10.7778 25.9241 11.6667 25.8664 12.5556C25.751 14.0556 25.1164 15.3333 23.9047 16.3333Z" fill="#106393"/>
<path d="M20.2123 7.27783C17.3274 7.27783 15.0195 9.50005 15.0195 12.2778C15.0195 15.0556 17.3274 17.2778 20.2123 17.2778C23.0971 17.2778 25.405 15.0556 25.405 12.2778C25.405 9.55561 23.0971 7.27783 20.2123 7.27783ZM19.6353 7.77783C20.2123 7.72228 20.7315 7.72228 21.2508 7.83339C21.4816 7.88894 21.597 8.00005 21.6547 8.22228C21.7701 9.00005 21.9432 9.77783 22.1163 10.5556C22.1163 10.5556 22.1163 10.6112 22.1163 10.6667C20.7892 9.83339 19.5199 9.00005 18.2506 8.11117C18.6544 7.9445 19.116 7.83339 19.6353 7.77783ZM15.7119 10.6112C16.1158 9.77783 16.635 9.05561 17.4428 8.50005C17.5582 8.38894 17.7313 8.33339 17.9044 8.27783C17.9621 8.27783 18.0198 8.27783 18.0198 8.27783C18.7698 8.77783 19.5199 9.27783 20.27 9.77783C20.27 9.77783 20.27 9.77783 20.3277 9.77783C18.7698 10.1112 17.212 10.3889 15.7119 10.6112ZM15.5965 13.5556C15.4234 13.0001 15.3657 12.3889 15.4234 11.8334C15.4811 11.5556 15.5388 11.3334 15.5965 11.0556C15.5965 11.0001 15.6542 11.0001 15.7119 10.9445C16.635 10.7778 17.5005 10.6112 18.4237 10.4445C18.4237 10.4445 18.4237 10.4445 18.4813 10.4445C17.6159 11.6667 16.7504 12.9445 15.8273 14.1667C15.7119 13.9445 15.6542 13.7223 15.5965 13.5556ZM18.4813 16.5556C18.1929 16.3889 17.8467 16.2223 17.5582 16.0556C16.9812 15.7223 16.462 15.2223 16.1158 14.6667C15.9427 14.3889 15.9427 14.3889 16.1158 14.1667C16.5773 13.5001 17.0389 12.8889 17.5005 12.2223C17.5005 12.1667 17.5582 12.1667 17.6159 12.1112C17.9044 13.6112 18.1929 15.0556 18.4813 16.5556ZM20.8469 16.7778C20.2123 16.8889 19.5776 16.8334 18.9429 16.6667C18.8852 16.6667 18.8275 16.6112 18.7698 16.5001C18.5967 15.6667 18.4237 14.7778 18.3083 13.9445C18.3083 13.9445 18.3083 13.9445 18.3083 13.8889C19.5776 14.7223 20.9046 15.5556 22.174 16.4445C21.7124 16.6112 21.2508 16.7223 20.8469 16.7778ZM23.1548 15.8334C22.924 16.0001 22.6932 16.1112 22.4624 16.2778C22.4047 16.2778 22.347 16.2778 22.2894 16.2778C21.5393 15.7778 20.7892 15.2778 20.0392 14.7778C20.0392 14.7778 19.9815 14.7778 19.9815 14.7223C21.5393 14.4445 23.0394 14.1667 24.5972 13.8889C24.3087 14.6667 23.8472 15.3334 23.1548 15.8334ZM24.7126 10.7223C24.9434 11.3334 25.0588 12.0001 25.0011 12.6667C24.9434 12.9445 24.8857 13.2223 24.828 13.5001C24.828 13.5556 24.7703 13.6112 24.7126 13.6112C23.9626 13.7223 23.1548 13.8889 22.4047 14.0001C22.2893 14.0001 22.1163 14.0556 22.0009 14.0556C22.8663 12.7778 23.7318 11.5556 24.6549 10.3334C24.5972 10.5001 24.6549 10.6112 24.7126 10.7223ZM24.1933 10.4445C23.7318 11.1112 23.2702 11.7223 22.8086 12.3889C22.8086 12.4445 22.7509 12.4445 22.7509 12.5001C22.4624 11.0001 22.174 9.55561 21.8855 8.05561C21.8855 8.05561 21.8855 8.05561 21.8855 8.00005C22.174 8.16672 22.5201 8.33339 22.8086 8.50005C23.3856 8.83339 23.8472 9.33339 24.1933 9.88894C24.3664 10.1667 24.3664 10.1667 24.1933 10.4445Z" fill="#106393"/>
<path d="M18.7699 33.9999V31.7222L13.231 36.9999H15.5965L18.7699 33.9999Z" fill="#106393"/>
<path d="M21.8853 31.7222V33.9999L25.0586 36.9999H27.4242L21.8853 31.7222Z" fill="#106393"/>
<path d="M21.1351 34.3334V32.4446V30.4446V25.5557H19.4619V30.4446V32.389V34.2779V37.0001H21.1351V34.3334Z" fill="#106393"/>
</svg>
