<svg width="40" height="40" viewBox="0 0 40 40" fill="none" xmlns="http://www.w3.org/2000/svg">
<path d="M38 27.8878C38 27.6739 38.1426 22.7554 35.0774 19.9753C34.8635 19.7615 34.5071 19.7615 34.2933 19.9753C34.2933 19.9753 30.6578 22.6841 27.3788 19.9753C27.165 19.7615 26.8086 19.7615 26.5947 19.9753C26.5234 20.0466 25.5255 20.902 24.6701 22.6128C24.4562 22.5415 24.2424 22.5415 24.0285 22.6841C23.8859 22.8267 20.3931 25.3928 17.1141 22.6841C16.9715 22.5415 16.7576 22.5415 16.5438 22.6128C16.1161 21.6861 15.5458 20.8307 14.6904 20.0466C14.4766 19.8328 14.1202 19.8328 13.9063 20.0466C13.835 20.0466 10.2709 22.7554 6.99185 20.0466C6.778 19.8328 6.42159 19.8328 6.20774 20.0466C6.06517 20.0466 3.07128 22.6841 3 27.8878C3 28.0303 3.07128 28.1729 3.14257 28.3155C3.28513 28.458 3.4277 28.5293 3.57026 28.5293H13.2648C13.1222 29.1708 13.0509 29.8837 13.0509 30.5965C13.0509 30.7391 13.1222 30.8816 13.1935 31.0242C13.336 31.1668 13.4786 31.2381 13.6212 31.2381H27.0224C27.3788 31.2381 27.5927 30.9529 27.5927 30.6678C27.5927 30.5965 27.5927 29.7411 27.4501 28.5293H37.2159C37.7149 28.5293 38 28.2442 38 27.8878ZM13.6212 27.3175H4.2831C4.49694 24.0385 5.99389 22.0425 6.63544 21.2584C9.77189 23.4682 13.0509 21.9 14.1914 21.2584C14.833 21.9 15.2607 22.6841 15.5458 23.4682C14.9756 24.181 14.1202 25.4641 13.6212 27.3175ZM14.334 30.0262C14.5479 26.7472 16.0448 24.7513 16.6864 23.9672C19.8228 26.177 23.1018 24.6087 24.2424 23.9672C26.0244 25.8918 26.3809 28.8144 26.4521 30.0262H14.334ZM27.3788 27.3175C27.0937 26.1057 26.5234 24.68 25.5967 23.5395C26.0957 22.4702 26.666 21.6861 27.0224 21.2584C30.1589 23.4682 33.4379 21.9 34.5784 21.2584C36.3605 23.1831 36.7169 26.1057 36.7882 27.3175H27.3788Z" fill="#106393"/>
<path d="M30.658 8C29.161 8 27.6641 8.57026 26.5948 9.71079C25.6682 10.6375 25.0979 11.778 24.9553 12.9898C23.8861 11.6354 22.2466 10.7088 20.3932 10.7088C18.8963 10.7088 17.3993 11.279 16.3301 12.4196C16.1875 12.5621 16.0449 12.7047 15.9024 12.9185C15.546 10.1385 13.1936 8 10.3423 8C8.77406 8 7.3484 8.57026 6.27915 9.71079C5.13862 10.78 4.56836 12.2057 4.56836 13.7026C4.56836 16.8391 7.13455 19.4053 10.271 19.4053C11.768 19.4053 13.2649 18.835 14.3341 17.6945C14.4767 17.5519 14.6193 17.4094 14.7618 17.1955C15.1895 19.9756 17.5419 22.0428 20.3932 22.0428C21.8902 22.0428 23.3871 21.4725 24.4563 20.332C25.383 19.4053 25.9533 18.2648 26.0959 17.053C27.1651 18.4073 28.8046 19.334 30.658 19.334C32.1549 19.334 33.6519 18.7637 34.7211 17.6232C35.7904 16.554 36.4319 15.1283 36.4319 13.5601C36.4319 10.5662 33.8657 8 30.658 8ZM13.4787 16.9104C12.6233 17.7658 11.4828 18.2648 10.271 18.2648C7.7761 18.2648 5.78017 16.2688 5.78017 13.7739C5.78017 12.5621 6.27915 11.4216 7.13455 10.5662C7.98995 9.71079 9.13048 9.21181 10.3423 9.21181C12.8372 9.21181 14.8331 11.2077 14.8331 13.7026C14.8331 14.9145 14.3341 16.055 13.4787 16.9104ZM23.6009 19.6191C22.7455 20.4745 21.605 20.9735 20.3932 20.9735C17.8983 20.9735 15.9024 18.9776 15.9024 16.4827C15.9024 15.2709 16.4014 14.1303 17.2568 13.2749C18.1121 12.4196 19.2527 11.9206 20.4645 11.9206C22.9594 11.9206 24.9553 13.9165 24.9553 16.4114C24.9553 17.6232 24.4563 18.7637 23.6009 19.6191ZM33.8657 16.9104C33.0103 17.7658 31.8698 18.2648 30.658 18.2648C28.1631 18.2648 26.1671 16.2688 26.1671 13.7739C26.1671 12.5621 26.6661 11.4216 27.5215 10.5662C28.3769 9.71079 29.5174 9.21181 30.7293 9.21181C33.2242 9.21181 35.2201 11.2077 35.2201 13.7026C35.2201 14.9145 34.7211 16.055 33.8657 16.9104Z" fill="#106393"/>
</svg>
