<svg width="40" height="40" viewBox="0 0 40 40" fill="none" xmlns="http://www.w3.org/2000/svg">
<path d="M13.4904 23.6669H15.571V30.2656C15.571 30.4439 15.7494 30.6223 15.9277 30.6223H17.7706C17.949 30.6223 18.1273 30.4439 18.1273 30.2656V20.1594C18.1273 19.9811 17.949 19.8027 17.7706 19.8027H16.1655C15.9872 19.8027 15.8088 19.9811 15.8088 20.1594C15.8088 20.1594 15.8088 20.2783 15.7494 20.4567C15.6899 20.6945 15.571 20.8728 15.4521 21.0511C15.2738 21.2889 14.9766 21.4078 14.6793 21.4673C14.4415 21.5267 14.0254 21.5862 13.4309 21.5862C13.2526 21.5862 13.0742 21.7645 13.0742 21.9429V23.3102C13.1337 23.4885 13.312 23.6669 13.4904 23.6669ZM13.847 22.2996C14.3226 22.2996 14.6793 22.2401 14.8577 22.1807C15.3332 22.0618 15.6899 21.8834 15.9872 21.5267C16.225 21.2889 16.3439 20.9917 16.4628 20.635C16.4628 20.5756 16.4628 20.5161 16.5222 20.5161H17.4139V29.9089H16.2844V23.3102C16.2844 23.1318 16.1061 22.9535 15.9277 22.9535H13.847V22.2996Z" fill="#106393"/>
<path d="M20.3269 29.9088C20.9808 30.5032 21.8725 30.741 22.9426 30.741C24.2505 30.741 25.2611 30.3249 25.915 29.4926C26.5689 28.7198 26.8662 27.7686 26.8662 26.758C26.8662 25.5691 26.5095 24.6773 25.7961 24.0234C25.0827 23.4289 24.3099 23.0723 23.3587 23.0723C22.8832 23.0723 22.5265 23.1317 22.1698 23.2506C22.1103 23.2506 22.0509 23.31 21.9914 23.31L22.1103 22.1211H25.4394C25.6178 22.1211 25.7961 21.9427 25.7961 21.7644V20.0999C25.7961 19.9215 25.6178 19.7432 25.4394 19.7432H20.0297C19.8513 19.7432 19.673 19.8621 19.673 20.0999L19.3163 25.688C19.3163 25.8069 19.3163 25.8663 19.4352 25.9258C19.4946 25.9852 19.6135 26.0447 19.673 26.0447L21.6348 26.1041C21.7537 26.1041 21.932 26.0447 21.9914 25.9258C22.1103 25.688 22.2887 25.5691 22.467 25.5096C22.5859 25.4502 22.7643 25.4502 23.0021 25.4502C23.4182 25.4502 23.656 25.5691 23.8343 25.8069C24.0127 26.1041 24.1316 26.4608 24.1316 26.9364C24.1316 27.3525 24.0127 27.7686 23.8343 28.0064C23.656 28.2442 23.3587 28.3631 23.0021 28.3631C22.7048 28.3631 22.467 28.3037 22.2887 28.1253C22.1103 27.947 21.9914 27.6497 21.932 27.2931C21.8725 27.1147 21.7537 26.9958 21.5753 26.9958H19.6135C19.4946 26.9958 19.4352 27.0553 19.3757 27.1147C19.3163 27.1742 19.2568 27.2931 19.2568 27.412C19.2568 28.482 19.6135 29.3143 20.3269 29.9088ZM21.2186 27.7686C21.3375 28.1253 21.4564 28.4226 21.6942 28.6604C21.9914 28.9576 22.4076 29.1359 22.9426 29.1359C23.5371 29.1359 24.0127 28.8982 24.3694 28.482C24.6666 28.0659 24.8449 27.5903 24.8449 26.9364C24.8449 26.3419 24.7261 25.8663 24.4288 25.4502C24.1316 24.9746 23.656 24.7368 23.0021 24.7368C22.7048 24.7368 22.467 24.7962 22.2292 24.8557C21.932 24.9746 21.6348 25.1529 21.4564 25.4502L20.0891 25.3907L20.4458 20.516H25.1422V21.4672H21.8725C21.6942 21.4672 21.5159 21.5861 21.5159 21.8238L21.2781 24.0234C21.2781 24.1423 21.3375 24.3207 21.4564 24.3801C21.5753 24.4396 21.7537 24.4396 21.8131 24.3801C22.1698 24.1423 22.3481 24.0829 22.467 24.0234C22.7048 23.9045 23.0021 23.9045 23.4182 23.9045C24.191 23.9045 24.7855 24.1423 25.38 24.6773C25.915 25.1529 26.2123 25.8663 26.2123 26.8769C26.2123 27.7092 25.9745 28.482 25.38 29.1359C24.8449 29.7899 24.0721 30.0871 23.0021 30.0871C22.1103 30.0871 21.4564 29.8493 20.8619 29.3737C20.3863 29.017 20.1486 28.482 20.0297 27.8281H21.2186V27.7686Z" fill="#106393"/>
<path d="M30.9087 9.69639H30.017C29.9575 9.69639 29.8386 9.69639 29.7792 9.75584V6.78344C29.7792 5.77282 29.0064 5 27.9958 5C26.9851 5 26.2123 5.83227 26.2123 6.78344V9.75584C26.1529 9.75584 26.1529 9.75584 26.0934 9.75584H13.8471C13.7877 9.75584 13.7282 9.75584 13.7282 9.75584V6.78344C13.7282 5.77282 12.9554 5 11.9448 5C10.9342 5 10.1614 5.83227 10.1614 6.78344V9.75584C10.1019 9.75584 10.0425 9.69639 9.98301 9.69639H9.0913C7.3673 9.69639 6 11.1231 6 12.7877V32.4055C6 34.1295 7.3673 35.4968 9.0913 35.4968H30.9087C32.6327 35.4968 34 34.1295 34 32.4055V12.7877C34 11.1231 32.6327 9.69639 30.9087 9.69639ZM27.2229 6.78344C27.2229 6.3673 27.5796 6.01062 27.9958 6.01062C28.4119 6.01062 28.7686 6.3673 28.7686 6.78344V12.1932C28.7686 12.6093 28.4119 12.966 27.9958 12.966C27.5796 12.966 27.2229 12.6093 27.2229 12.1932V6.78344ZM11.172 6.78344C11.172 6.3673 11.5287 6.01062 11.9448 6.01062C12.3609 6.01062 12.7176 6.3673 12.7176 6.78344V12.1932C12.7176 12.6093 12.3609 12.966 11.9448 12.966C11.5287 12.966 11.172 12.6093 11.172 12.1932V6.78344ZM32.9299 32.465C32.9299 33.535 32.0382 34.4862 30.9087 34.4862H9.0913C7.96178 34.4862 7.07006 33.5945 7.07006 32.465V12.8471C7.07006 11.7176 7.96178 10.8259 9.0913 10.8259H9.44798V11.896C9.44798 13.2633 10.5775 14.3928 11.9448 14.3928C13.3121 14.3928 14.4416 13.2633 14.4416 11.896V10.8259H25.6178V11.896C25.6178 13.2633 26.7473 14.3928 28.1147 14.3928C29.482 14.3928 30.6115 13.2633 30.6115 11.896V10.8259H30.9682C32.0977 10.8259 32.9894 11.7176 32.9894 12.8471V32.465H32.9299Z" fill="#106393"/>
<path d="M31.325 17.5435H8.73474C8.4375 17.5435 8.19971 17.7812 8.19971 18.0785V31.3948C8.19971 32.4055 9.03198 33.2377 10.0426 33.2377H29.9577C30.9683 33.2377 31.8006 32.4055 31.8006 31.3948V18.0785C31.86 17.7812 31.6222 17.5435 31.325 17.5435ZM30.7899 31.4543C30.7899 31.8704 30.4333 32.2271 30.0171 32.2271H10.102C9.68591 32.2271 9.32922 31.8704 9.32922 31.4543V18.6135H30.7899V31.4543Z" fill="#106393"/>
</svg>
