<svg width="40" height="40" viewBox="0 0 40 40" fill="none" xmlns="http://www.w3.org/2000/svg">
<path fill-rule="evenodd" clip-rule="evenodd" d="M29.1635 19.649H27.4495C27.226 19.649 26.8534 19.5 26.7043 19.1274L26.1082 17.637C25.7356 16.7428 24.9159 16.2957 24.1707 16.2957H23.649V15.9231C23.8726 15.9231 24.0216 15.774 24.0216 15.5505V14.8053H25.1394C26.1082 14.8053 27.0024 14.0601 27.0024 13.0913V5.86298C26.9279 4.81971 26.1082 4 25.1394 4H19.2524C18.2837 4 17.3894 4.81971 17.3894 5.86298V13.1659C17.3894 14.1346 18.2837 14.8798 19.2524 14.8798H20.3702V15.625C20.3702 15.8486 20.5938 15.9976 20.7428 15.9976V16.3702H20.3702C19.476 16.3702 18.6563 16.8918 18.2837 17.7115L17.6875 19.2019C17.5385 19.5745 17.3149 19.7236 16.9423 19.7236H13.6635C13.5144 19.7236 13.4399 19.7236 13.4399 19.5L13.2909 19.351C13.1418 19.0529 12.9183 18.9038 12.6947 18.9038H12.024C11.8005 18.9038 11.5024 19.0529 11.4279 19.2764L11.2788 19.4255C11.2788 19.649 11.2043 19.649 11.0553 19.649H10.6082C9.11779 19.649 8 20.7668 8 22.2572V32.3173C8 33.8077 9.11779 35 10.6082 35H29.1635C30.5048 35 31.7716 33.8077 31.7716 32.3173V22.1827C31.7716 20.7668 30.5048 19.649 29.1635 19.649ZM19.2524 9.36538C18.6563 9.36538 18.1346 8.99279 18.1346 8.2476V5.86298C18.1346 5.26683 18.6563 4.74519 19.2524 4.74519H25.1394C25.7356 4.74519 26.2572 5.26683 26.2572 5.86298V8.32212C26.2572 9.06731 25.7356 9.4399 25.1394 9.4399H19.2524V9.36538ZM21.7861 15.9976H22.5313V16.3702H21.7861V15.9976ZM15.4519 24.0457C14.9303 24.0457 14.5577 23.524 14.5577 23.226C14.5577 22.6298 14.9303 22.2572 15.4519 22.2572C15.9736 22.2572 16.3462 22.6298 16.3462 23.226C16.3462 23.524 15.9736 24.0457 15.4519 24.0457ZM21.9351 32.8389C18.8798 32.8389 16.3462 30.2308 16.3462 27.101C16.3462 24.0457 18.9543 21.512 21.9351 21.512C25.1394 21.512 27.6731 24.0457 27.6731 27.101C27.6731 30.2308 25.1394 32.8389 21.9351 32.8389ZM26.5553 27.101C26.5553 29.6346 24.4688 31.7212 21.9351 31.7212C19.476 31.7212 17.3894 29.6346 17.3894 27.101C17.3894 24.6418 19.476 22.5553 21.9351 22.5553C24.5433 22.5553 26.5553 24.6418 26.5553 27.101Z" fill="#106393"/>
</svg>
